<svg width="246" height="85" viewBox="0 0 246 85" fill="none" xmlns="http://www.w3.org/2000/svg">
<g clip-path="url(#clip0_23_566)" filter="url(#filter0_d_23_566)">
<path d="M94.835 33.1874L89.0539 51H85L92.5788 30H95.169L94.835 33.1874ZM99.6685 51L93.8602 33.1874L93.5119 30H96.1165L103.736 51H99.6685ZM99.4046 43.1972V46.3269H88.5245V43.1972H99.4046ZM120.375 46.8895L125.432 30H129.681L122.521 51H119.693L120.375 46.8895ZM115.708 30L120.738 46.8895L121.462 51H118.606L111.474 30H115.708ZM147.337 33.1874L141.555 51H137.502L145.08 30H147.671L147.337 33.1874ZM152.171 51L146.361 33.1874L146.013 30H148.619L156.239 51H152.171ZM151.906 43.1972V46.3269H141.026V43.1972H151.906ZM173.838 30V51H170.021V30H173.838ZM180.135 30V33.1298H163.794V30H180.135ZM197.889 33.1874L192.107 51H188.053L195.632 30H198.223L197.889 33.1874ZM202.723 51L196.913 33.1874L196.565 30H199.171L206.79 51H202.723ZM202.457 43.1972V46.3269H191.578V43.1972H202.457ZM217.439 30H224.808C226.35 30 227.673 30.2404 228.779 30.7211C229.884 31.202 230.733 31.9135 231.327 32.8558C231.922 33.798 232.219 34.9567 232.219 36.3317C232.219 37.4182 232.034 38.3606 231.663 39.1586C231.291 39.9567 230.766 40.625 230.088 41.1634C229.419 41.7019 228.63 42.125 227.72 42.4327L226.521 43.0673H220.016L219.988 39.9375H224.85C225.639 39.9375 226.294 39.7932 226.815 39.5049C227.334 39.2164 227.724 38.8174 227.985 38.3077C228.253 37.798 228.389 37.2164 228.389 36.5625C228.389 35.8606 228.258 35.2548 227.999 34.7452C227.739 34.226 227.344 33.827 226.815 33.5481C226.285 33.2693 225.617 33.1298 224.808 33.1298H221.269V51H217.439V30ZM228.89 51L224.195 41.5962L228.25 41.5818L233 50.798V51H228.89Z" fill="#1C1C1C"/>
<path d="M81.0001 74.9999L65.346 73.9512C61.6235 73.9981 58.6754 72.4707 56.8861 69.3912L41.706 44.4688L33.7151 30.7146C32.9765 29.4375 32.5582 28.0022 32.4956 26.5302C32.4329 25.0583 32.7278 23.593 33.3553 22.2583L33.8665 21.3799C34.0533 21.0645 34.2562 20.759 34.4745 20.4644C34.5465 20.3657 34.6308 20.2695 34.7078 20.1708C35.3867 19.3927 36.1909 18.7323 37.0877 18.2164C39.2011 17.0046 41.7121 16.677 44.0683 17.3059C46.4246 17.9348 48.4331 19.4686 49.6522 21.5699L53.7543 28.6296L63.2341 44.9623L81.0001 74.9999Z" fill="url(#paint0_linear_23_566)"/>
<path d="M53.7543 28.6295C51.6771 27.9484 50.3644 29.6362 50.0318 30.11C50.0012 30.1519 49.973 30.1956 49.9474 30.2408V30.221C49.8953 30.3198 49.8482 30.4234 49.7961 30.5196L41.701 44.4613C41.701 44.4613 27.9354 69.8772 27.9155 69.9068C26.0667 72.6433 24.0889 73.3885 19.7882 73.9363L3.99512 74.9925L33.7747 21.5747C34.733 19.9254 36.1861 18.6155 37.9305 17.8283C39.6749 17.0411 41.6233 16.8162 43.5027 17.1849C43.6788 17.217 43.8551 17.2565 44.0263 17.3009C44.1975 17.3453 44.4035 17.4119 44.5871 17.4712C46.7263 18.173 48.5299 19.6351 49.6521 21.5772L50.1212 22.389L53.7543 28.6295Z" fill="url(#paint1_linear_23_566)"/>
<path d="M49.9524 30.2359V30.2631C49.9524 30.2631 51.3372 27.8523 53.7543 28.6468L49.6522 21.5773C48.4327 19.4765 46.4241 17.9431 44.0681 17.3143C41.712 16.6855 39.2012 17.0126 37.0877 18.2238C36.1909 18.7406 35.3866 19.4018 34.7078 20.1806C34.6308 20.2769 34.5465 20.3756 34.4745 20.4718C34.2586 20.7654 34.0551 21.0689 33.8665 21.3873L33.3553 22.2657C32.7278 23.6008 32.4329 25.0665 32.4956 26.5388C32.5582 28.0112 32.9765 29.4469 33.7151 30.7245L41.706 44.4762L49.801 30.5345C49.8532 30.4383 49.9003 30.3346 49.9524 30.2359Z" fill="url(#paint2_linear_23_566)"/>
<path d="M85.8807 66V58.7273H88.4233C88.9299 58.7273 89.3478 58.8149 89.6768 58.9901C90.0059 59.1629 90.2509 59.3961 90.4119 59.6896C90.5729 59.9808 90.6534 60.304 90.6534 60.6591C90.6534 60.9716 90.5978 61.2296 90.4865 61.4332C90.3776 61.6368 90.2332 61.7978 90.0533 61.9162C89.8757 62.0346 89.6828 62.1222 89.4744 62.179V62.25C89.697 62.2642 89.9207 62.3423 90.1456 62.4844C90.3705 62.6264 90.5587 62.83 90.7102 63.0952C90.8617 63.3603 90.9375 63.6847 90.9375 64.0682C90.9375 64.4328 90.8546 64.7607 90.6889 65.0518C90.5232 65.343 90.2616 65.5739 89.9041 65.7443C89.5466 65.9148 89.0814 66 88.5085 66H85.8807ZM86.7614 65.2188H88.5085C89.0838 65.2188 89.4922 65.1075 89.7337 64.8849C89.9775 64.66 90.0994 64.3878 90.0994 64.0682C90.0994 63.822 90.0367 63.5947 89.9112 63.3864C89.7857 63.1757 89.607 63.0076 89.375 62.8821C89.143 62.7543 88.8684 62.6903 88.5511 62.6903H86.7614V65.2188ZM86.7614 61.9233H88.3949C88.66 61.9233 88.8991 61.8712 89.1122 61.767C89.3277 61.6629 89.4981 61.5161 89.6236 61.3267C89.7514 61.1373 89.8153 60.9148 89.8153 60.6591C89.8153 60.3395 89.7041 60.0684 89.4815 59.8459C89.259 59.621 88.9063 59.5085 88.4233 59.5085H86.7614V61.9233ZM94.8596 58.7273H95.8681L97.8852 62.1222H97.9704L99.9874 58.7273H100.996L98.3681 63.0028V66H97.4874V63.0028L94.8596 58.7273ZM117 61H116.119C116.067 60.7467 115.976 60.5241 115.846 60.3324C115.718 60.1406 115.562 59.9796 115.377 59.8494C115.195 59.7169 114.992 59.6174 114.77 59.5511C114.547 59.4848 114.315 59.4517 114.074 59.4517C113.633 59.4517 113.234 59.563 112.877 59.7855C112.522 60.008 112.239 60.3359 112.028 60.7692C111.82 61.2024 111.716 61.7339 111.716 62.3636C111.716 62.9934 111.82 63.5249 112.028 63.9581C112.239 64.3913 112.522 64.7192 112.877 64.9418C113.234 65.1643 113.633 65.2756 114.074 65.2756C114.315 65.2756 114.547 65.2424 114.77 65.1761C114.992 65.1098 115.195 65.0116 115.377 64.8814C115.562 64.7488 115.718 64.5866 115.846 64.3949C115.976 64.2008 116.067 63.9782 116.119 63.7273H117C116.933 64.099 116.813 64.4316 116.638 64.7251C116.462 65.0187 116.245 65.2685 115.984 65.4744C115.724 65.678 115.431 65.8331 115.107 65.9396C114.785 66.0462 114.441 66.0994 114.074 66.0994C113.453 66.0994 112.902 65.9479 112.419 65.6449C111.936 65.3419 111.556 64.911 111.279 64.3523C111.002 63.7936 110.863 63.1307 110.863 62.3636C110.863 61.5966 111.002 60.9337 111.279 60.375C111.556 59.8163 111.936 59.3854 112.419 59.0824C112.902 58.7794 113.453 58.6278 114.074 58.6278C114.441 58.6278 114.785 58.6811 115.107 58.7876C115.431 58.8942 115.724 59.0504 115.984 59.2564C116.245 59.46 116.462 59.7086 116.638 60.0021C116.813 60.2933 116.933 60.6259 117 61ZM121.821 66H120.898L123.568 58.7273H124.477L127.148 66H126.225L124.051 59.8778H123.994L121.821 66ZM122.162 63.1591H125.884V63.9403H122.162V63.1591ZM135.358 60.5455C135.315 60.1856 135.143 59.9062 134.839 59.7074C134.536 59.5085 134.165 59.4091 133.724 59.4091C133.402 59.4091 133.121 59.4612 132.879 59.5653C132.64 59.6695 132.453 59.8127 132.318 59.995C132.186 60.1773 132.119 60.3845 132.119 60.6165C132.119 60.8106 132.165 60.9775 132.258 61.1172C132.353 61.2545 132.473 61.3693 132.62 61.4616C132.767 61.5516 132.921 61.6262 133.082 61.6854C133.243 61.7422 133.391 61.7884 133.526 61.8239L134.264 62.0227C134.454 62.0724 134.664 62.1411 134.896 62.2287C135.131 62.3163 135.354 62.4358 135.567 62.5874C135.783 62.7365 135.96 62.9283 136.1 63.1626C136.24 63.397 136.31 63.6847 136.31 64.0256C136.31 64.4186 136.207 64.7737 136.001 65.0909C135.797 65.4081 135.499 65.6603 135.106 65.8473C134.715 66.0343 134.241 66.1278 133.682 66.1278C133.161 66.1278 132.71 66.0438 132.329 65.8757C131.95 65.7076 131.652 65.4732 131.434 65.1726C131.219 64.8719 131.097 64.5227 131.068 64.125H131.977C132.001 64.3996 132.093 64.6269 132.254 64.8068C132.418 64.9844 132.624 65.117 132.872 65.2045C133.123 65.2898 133.393 65.3324 133.682 65.3324C134.018 65.3324 134.32 65.2779 134.587 65.169C134.855 65.0578 135.067 64.9039 135.223 64.7074C135.379 64.5085 135.457 64.2765 135.457 64.0114C135.457 63.7699 135.39 63.5734 135.255 63.4219C135.12 63.2704 134.942 63.1473 134.722 63.0526C134.502 62.9579 134.264 62.875 134.009 62.804L133.114 62.5483C132.545 62.3849 132.096 62.1518 131.764 61.8487C131.433 61.5457 131.267 61.1491 131.267 60.6591C131.267 60.2519 131.377 59.8968 131.597 59.5938C131.82 59.2884 132.118 59.0516 132.492 58.8835C132.869 58.7131 133.289 58.6278 133.753 58.6278C134.222 58.6278 134.638 58.7119 135.003 58.88C135.367 59.0457 135.656 59.273 135.869 59.5618C136.085 59.8506 136.198 60.1785 136.21 60.5455H135.358ZM140.46 59.5085V58.7273H145.914V59.5085H143.628V66H142.747V59.5085H140.46ZM151.254 58.7273V66H150.374V58.7273H151.254ZM161.887 58.7273V66H161.035L157.072 60.2898H157.001V66H156.12V58.7273H156.972L160.95 64.4517H161.021V58.7273H161.887ZM171.721 61C171.643 60.7609 171.54 60.5466 171.412 60.3572C171.287 60.1655 171.136 60.0021 170.961 59.8672C170.788 59.7322 170.592 59.6293 170.372 59.5582C170.151 59.4872 169.91 59.4517 169.647 59.4517C169.216 59.4517 168.824 59.563 168.472 59.7855C168.119 60.008 167.838 60.3359 167.63 60.7692C167.422 61.2024 167.318 61.7339 167.318 62.3636C167.318 62.9934 167.423 63.5249 167.634 63.9581C167.844 64.3913 168.13 64.7192 168.489 64.9418C168.849 65.1643 169.254 65.2756 169.704 65.2756C170.121 65.2756 170.488 65.1868 170.805 65.0092C171.124 64.8293 171.373 64.576 171.551 64.2493C171.73 63.9202 171.82 63.5331 171.82 63.0881L172.09 63.1449H169.903V62.3636H172.673V63.1449C172.673 63.7438 172.545 64.2647 172.289 64.7074C172.036 65.1501 171.686 65.4934 171.238 65.7372C170.793 65.9787 170.282 66.0994 169.704 66.0994C169.06 66.0994 168.494 65.9479 168.007 65.6449C167.521 65.3419 167.142 64.911 166.87 64.3523C166.6 63.7936 166.465 63.1307 166.465 62.3636C166.465 61.7884 166.542 61.2711 166.696 60.8118C166.852 60.3501 167.073 59.9571 167.357 59.6328C167.641 59.3085 167.977 59.0599 168.365 58.8871C168.753 58.7143 169.181 58.6278 169.647 58.6278C170.031 58.6278 170.388 58.6858 170.72 58.8018C171.053 58.9155 171.351 59.0777 171.611 59.2884C171.874 59.4967 172.093 59.7464 172.268 60.0376C172.443 60.3265 172.564 60.6473 172.63 61H171.721ZM187.171 60.5455C187.128 60.1856 186.955 59.9062 186.652 59.7074C186.349 59.5085 185.978 59.4091 185.537 59.4091C185.215 59.4091 184.934 59.4612 184.692 59.5653C184.453 59.6695 184.266 59.8127 184.131 59.995C183.998 60.1773 183.932 60.3845 183.932 60.6165C183.932 60.8106 183.978 60.9775 184.071 61.1172C184.165 61.2545 184.286 61.3693 184.433 61.4616C184.58 61.5516 184.734 61.6262 184.895 61.6854C185.056 61.7422 185.204 61.7884 185.338 61.8239L186.077 62.0227C186.266 62.0724 186.477 62.1411 186.709 62.2287C186.944 62.3163 187.167 62.4358 187.38 62.5874C187.596 62.7365 187.773 62.9283 187.913 63.1626C188.053 63.397 188.123 63.6847 188.123 64.0256C188.123 64.4186 188.02 64.7737 187.814 65.0909C187.61 65.4081 187.312 65.6603 186.919 65.8473C186.528 66.0343 186.053 66.1278 185.495 66.1278C184.974 66.1278 184.523 66.0438 184.142 65.8757C183.763 65.7076 183.465 65.4732 183.247 65.1726C183.031 64.8719 182.909 64.5227 182.881 64.125H183.79C183.814 64.3996 183.906 64.6269 184.067 64.8068C184.231 64.9844 184.436 65.117 184.685 65.2045C184.936 65.2898 185.206 65.3324 185.495 65.3324C185.831 65.3324 186.133 65.2779 186.4 65.169C186.668 65.0578 186.88 64.9039 187.036 64.7074C187.192 64.5085 187.27 64.2765 187.27 64.0114C187.27 63.7699 187.203 63.5734 187.068 63.4219C186.933 63.2704 186.755 63.1473 186.535 63.0526C186.315 62.9579 186.077 62.875 185.821 62.804L184.927 62.5483C184.358 62.3849 183.909 62.1518 183.577 61.8487C183.246 61.5457 183.08 61.1491 183.08 60.6591C183.08 60.2519 183.19 59.8968 183.41 59.5938C183.633 59.2884 183.931 59.0516 184.305 58.8835C184.681 58.7131 185.102 58.6278 185.566 58.6278C186.034 58.6278 186.451 58.7119 186.816 58.88C187.18 59.0457 187.469 59.273 187.682 59.5618C187.898 59.8506 188.011 60.1785 188.023 60.5455H187.171ZM192.273 59.5085V58.7273H197.727V59.5085H195.44V66H194.56V59.5085H192.273ZM206.959 58.7273H207.84V63.5426C207.84 64.0398 207.723 64.4837 207.488 64.8743C207.256 65.2625 206.928 65.5691 206.505 65.794C206.081 66.0166 205.584 66.1278 205.013 66.1278C204.443 66.1278 203.946 66.0166 203.522 65.794C203.098 65.5691 202.769 65.2625 202.535 64.8743C202.303 64.4837 202.187 64.0398 202.187 63.5426V58.7273H203.067V63.4716C203.067 63.8267 203.145 64.1428 203.302 64.4197C203.458 64.6944 203.68 64.911 203.969 65.0696C204.26 65.2259 204.608 65.304 205.013 65.304C205.418 65.304 205.766 65.2259 206.057 65.0696C206.348 64.911 206.571 64.6944 206.725 64.4197C206.881 64.1428 206.959 63.8267 206.959 63.4716V58.7273ZM214.943 66H212.699V58.7273H215.042C215.748 58.7273 216.352 58.8729 216.853 59.1641C217.355 59.4529 217.74 59.8684 218.008 60.4105C218.275 60.9503 218.409 61.5966 218.409 62.3494C218.409 63.107 218.274 63.7592 218.004 64.3061C217.734 64.8506 217.341 65.2696 216.825 65.5632C216.309 65.8544 215.682 66 214.943 66ZM213.579 65.2188H214.886C215.487 65.2188 215.986 65.1027 216.381 64.8707C216.777 64.6387 217.071 64.3085 217.265 63.88C217.46 63.4515 217.557 62.9413 217.557 62.3494C217.557 61.7623 217.461 61.2569 217.269 60.8331C217.077 60.407 216.791 60.0803 216.41 59.853C216.028 59.6233 215.554 59.5085 214.986 59.5085H213.579V65.2188ZM223.867 58.7273V66H222.986V58.7273H223.867ZM234.869 62.3636C234.869 63.1307 234.731 63.7936 234.454 64.3523C234.177 64.911 233.797 65.3419 233.314 65.6449C232.831 65.9479 232.279 66.0994 231.659 66.0994C231.039 66.0994 230.487 65.9479 230.004 65.6449C229.521 65.3419 229.141 64.911 228.864 64.3523C228.587 63.7936 228.449 63.1307 228.449 62.3636C228.449 61.5966 228.587 60.9337 228.864 60.375C229.141 59.8163 229.521 59.3854 230.004 59.0824C230.487 58.7794 231.039 58.6278 231.659 58.6278C232.279 58.6278 232.831 58.7794 233.314 59.0824C233.797 59.3854 234.177 59.8163 234.454 60.375C234.731 60.9337 234.869 61.5966 234.869 62.3636ZM234.017 62.3636C234.017 61.7339 233.911 61.2024 233.701 60.7692C233.492 60.3359 233.209 60.008 232.852 59.7855C232.497 59.563 232.099 59.4517 231.659 59.4517C231.218 59.4517 230.82 59.563 230.462 59.7855C230.107 60.008 229.824 60.3359 229.613 60.7692C229.405 61.2024 229.301 61.7339 229.301 62.3636C229.301 62.9934 229.405 63.5249 229.613 63.9581C229.824 64.3913 230.107 64.7192 230.462 64.9418C230.82 65.1643 231.218 65.2756 231.659 65.2756C232.099 65.2756 232.497 65.1643 232.852 64.9418C233.209 64.7192 233.492 64.3913 233.701 63.9581C233.911 63.5249 234.017 62.9934 234.017 62.3636Z" fill="#707991"/>
</g>
<defs>
<filter id="filter0_d_23_566" x="0" y="0" width="250" height="93" filterUnits="userSpaceOnUse" color-interpolation-filters="sRGB">
<feFlood flood-opacity="0" result="BackgroundImageFix"/>
<feColorMatrix in="SourceAlpha" type="matrix" values="0 0 0 0 0 0 0 0 0 0 0 0 0 0 0 0 0 0 127 0" result="hardAlpha"/>
<feOffset dy="4"/>
<feGaussianBlur stdDeviation="2"/>
<feComposite in2="hardAlpha" operator="out"/>
<feColorMatrix type="matrix" values="0 0 0 0 0 0 0 0 0 0 0 0 0 0 0 0 0 0 0.25 0"/>
<feBlend mode="normal" in2="BackgroundImageFix" result="effect1_dropShadow_23_566"/>
<feBlend mode="normal" in="SourceGraphic" in2="effect1_dropShadow_23_566" result="shape"/>
</filter>
<linearGradient id="paint0_linear_23_566" x1="32.4867" y1="46.0036" x2="81.0001" y2="46.0036" gradientUnits="userSpaceOnUse">
<stop offset="0.13" stop-color="#008771"/>
<stop offset="0.54" stop-color="#00A086"/>
<stop offset="0.93" stop-color="#00B497"/>
</linearGradient>
<linearGradient id="paint1_linear_23_566" x1="16.3189" y1="30.189" x2="36.8052" y2="65.8721" gradientUnits="userSpaceOnUse">
<stop stop-color="#00B497"/>
<stop offset="0.16" stop-color="#06B699"/>
<stop offset="0.37" stop-color="#16BA9F"/>
<stop offset="0.6" stop-color="#30C1A8"/>
<stop offset="0.84" stop-color="#55CBB5"/>
<stop offset="1" stop-color="#70D3BF"/>
</linearGradient>
<linearGradient id="paint2_linear_23_566" x1="37.0827" y1="18.2263" x2="49.565" y2="39.9653" gradientUnits="userSpaceOnUse">
<stop stop-color="#5AE5BB"/>
<stop offset="0.29" stop-color="#36D1AC"/>
<stop offset="0.57" stop-color="#18C1A1"/>
<stop offset="0.82" stop-color="#06B79A"/>
<stop offset="1" stop-color="#00B497"/>
</linearGradient>
<clipPath id="clip0_23_566">
<rect width="242" height="85" fill="white" transform="translate(4)"/>
</clipPath>
</defs>
</svg>
