<svg width="242" height="85" viewBox="0 0 242 85" fill="none" xmlns="http://www.w3.org/2000/svg">
<g clip-path="url(#clip0_23_566)">
<path d="M90.835 33.1874L85.0539 51H81L88.5788 30H91.169L90.835 33.1874ZM95.6685 51L89.8602 33.1874L89.5119 30H92.1165L99.7364 51H95.6685ZM95.4046 43.1972V46.3269H84.5245V43.1972H95.4046ZM116.375 46.8895L121.432 30H125.681L118.521 51H115.693L116.375 46.8895ZM111.708 30L116.738 46.8895L117.462 51H114.606L107.474 30H111.708ZM143.337 33.1874L137.555 51H133.502L141.08 30H143.671L143.337 33.1874ZM148.171 51L142.361 33.1874L142.013 30H144.619L152.239 51H148.171ZM147.906 43.1972V46.3269H137.026V43.1972H147.906ZM169.838 30V51H166.021V30H169.838ZM176.135 30V33.1298H159.794V30H176.135ZM193.889 33.1874L188.107 51H184.053L191.632 30H194.223L193.889 33.1874ZM198.723 51L192.913 33.1874L192.565 30H195.171L202.79 51H198.723ZM198.457 43.1972V46.3269H187.578V43.1972H198.457ZM213.439 30H220.808C222.35 30 223.673 30.2404 224.779 30.7211C225.884 31.202 226.733 31.9135 227.327 32.8558C227.922 33.798 228.219 34.9567 228.219 36.3317C228.219 37.4182 228.034 38.3606 227.663 39.1586C227.291 39.9567 226.766 40.625 226.088 41.1634C225.419 41.7019 224.63 42.125 223.72 42.4327L222.521 43.0673H216.016L215.988 39.9375H220.85C221.639 39.9375 222.294 39.7932 222.815 39.5049C223.334 39.2164 223.724 38.8174 223.985 38.3077C224.253 37.798 224.389 37.2164 224.389 36.5625C224.389 35.8606 224.258 35.2548 223.999 34.7452C223.739 34.226 223.344 33.827 222.815 33.5481C222.285 33.2693 221.617 33.1298 220.808 33.1298H217.269V51H213.439V30ZM224.89 51L220.195 41.5962L224.25 41.5818L229 50.798V51H224.89Z" fill="#1C1C1C"/>
<path d="M77.0001 74.9999L61.346 73.9512C57.6235 73.9981 54.6754 72.4707 52.8861 69.3912L37.706 44.4688L29.7151 30.7146C28.9765 29.4375 28.5582 28.0022 28.4956 26.5302C28.4329 25.0583 28.7278 23.593 29.3553 22.2583L29.8665 21.3799C30.0533 21.0645 30.2562 20.759 30.4745 20.4644C30.5465 20.3657 30.6308 20.2695 30.7078 20.1708C31.3867 19.3927 32.1909 18.7323 33.0877 18.2164C35.2011 17.0046 37.7121 16.677 40.0683 17.3059C42.4246 17.9348 44.4331 19.4686 45.6522 21.5699L49.7543 28.6296L59.2341 44.9623L77.0001 74.9999Z" fill="url(#paint0_linear_23_566)"/>
<path d="M49.7543 28.6295C47.6771 27.9484 46.3644 29.6362 46.0318 30.11C46.0012 30.1519 45.973 30.1956 45.9474 30.2408V30.221C45.8953 30.3198 45.8482 30.4234 45.7961 30.5196L37.701 44.4613C37.701 44.4613 23.9354 69.8772 23.9155 69.9068C22.0667 72.6433 20.0889 73.3885 15.7882 73.9363L-0.00488281 74.9925L29.7747 21.5747C30.733 19.9254 32.1861 18.6155 33.9305 17.8283C35.6749 17.0411 37.6233 16.8162 39.5027 17.1849C39.6788 17.217 39.8551 17.2565 40.0263 17.3009C40.1975 17.3453 40.4035 17.4119 40.5871 17.4712C42.7263 18.173 44.5299 19.6351 45.6521 21.5772L46.1212 22.389L49.7543 28.6295Z" fill="url(#paint1_linear_23_566)"/>
<path d="M45.9524 30.2359V30.2631C45.9524 30.2631 47.3372 27.8523 49.7543 28.6468L45.6522 21.5773C44.4327 19.4765 42.4241 17.9431 40.0681 17.3143C37.712 16.6855 35.2012 17.0126 33.0877 18.2238C32.1909 18.7406 31.3866 19.4018 30.7078 20.1806C30.6308 20.2769 30.5465 20.3756 30.4745 20.4718C30.2586 20.7654 30.0551 21.0689 29.8665 21.3873L29.3553 22.2657C28.7278 23.6008 28.4329 25.0665 28.4956 26.5388C28.5582 28.0112 28.9765 29.4469 29.7151 30.7245L37.706 44.4762L45.801 30.5345C45.8532 30.4383 45.9003 30.3346 45.9524 30.2359Z" fill="url(#paint2_linear_23_566)"/>
<path d="M81.8807 66V58.7273H84.4233C84.9299 58.7273 85.3478 58.8149 85.6768 58.9901C86.0059 59.1629 86.2509 59.3961 86.4119 59.6896C86.5729 59.9808 86.6534 60.304 86.6534 60.6591C86.6534 60.9716 86.5978 61.2296 86.4865 61.4332C86.3776 61.6368 86.2332 61.7978 86.0533 61.9162C85.8757 62.0346 85.6828 62.1222 85.4744 62.179V62.25C85.697 62.2642 85.9207 62.3423 86.1456 62.4844C86.3705 62.6264 86.5587 62.83 86.7102 63.0952C86.8617 63.3603 86.9375 63.6847 86.9375 64.0682C86.9375 64.4328 86.8546 64.7607 86.6889 65.0518C86.5232 65.343 86.2616 65.5739 85.9041 65.7443C85.5466 65.9148 85.0814 66 84.5085 66H81.8807ZM82.7614 65.2188H84.5085C85.0838 65.2188 85.4922 65.1075 85.7337 64.8849C85.9775 64.66 86.0994 64.3878 86.0994 64.0682C86.0994 63.822 86.0367 63.5947 85.9112 63.3864C85.7857 63.1757 85.607 63.0076 85.375 62.8821C85.143 62.7543 84.8684 62.6903 84.5511 62.6903H82.7614V65.2188ZM82.7614 61.9233H84.3949C84.66 61.9233 84.8991 61.8712 85.1122 61.767C85.3277 61.6629 85.4981 61.5161 85.6236 61.3267C85.7514 61.1373 85.8153 60.9148 85.8153 60.6591C85.8153 60.3395 85.7041 60.0684 85.4815 59.8459C85.259 59.621 84.9063 59.5085 84.4233 59.5085H82.7614V61.9233ZM90.8596 58.7273H91.8681L93.8852 62.1222H93.9704L95.9874 58.7273H96.996L94.3681 63.0028V66H93.4874V63.0028L90.8596 58.7273ZM113 61H112.119C112.067 60.7467 111.976 60.5241 111.846 60.3324C111.718 60.1406 111.562 59.9796 111.377 59.8494C111.195 59.7169 110.992 59.6174 110.77 59.5511C110.547 59.4848 110.315 59.4517 110.074 59.4517C109.633 59.4517 109.234 59.563 108.877 59.7855C108.522 60.008 108.239 60.3359 108.028 60.7692C107.82 61.2024 107.716 61.7339 107.716 62.3636C107.716 62.9934 107.82 63.5249 108.028 63.9581C108.239 64.3913 108.522 64.7192 108.877 64.9418C109.234 65.1643 109.633 65.2756 110.074 65.2756C110.315 65.2756 110.547 65.2424 110.77 65.1761C110.992 65.1098 111.195 65.0116 111.377 64.8814C111.562 64.7488 111.718 64.5866 111.846 64.3949C111.976 64.2008 112.067 63.9782 112.119 63.7273H113C112.933 64.099 112.813 64.4316 112.638 64.7251C112.462 65.0187 112.245 65.2685 111.984 65.4744C111.724 65.678 111.431 65.8331 111.107 65.9396C110.785 66.0462 110.441 66.0994 110.074 66.0994C109.453 66.0994 108.902 65.9479 108.419 65.6449C107.936 65.3419 107.556 64.911 107.279 64.3523C107.002 63.7936 106.863 63.1307 106.863 62.3636C106.863 61.5966 107.002 60.9337 107.279 60.375C107.556 59.8163 107.936 59.3854 108.419 59.0824C108.902 58.7794 109.453 58.6278 110.074 58.6278C110.441 58.6278 110.785 58.6811 111.107 58.7876C111.431 58.8942 111.724 59.0504 111.984 59.2564C112.245 59.46 112.462 59.7086 112.638 60.0021C112.813 60.2933 112.933 60.6259 113 61ZM117.821 66H116.898L119.568 58.7273H120.477L123.148 66H122.225L120.051 59.8778H119.994L117.821 66ZM118.162 63.1591H121.884V63.9403H118.162V63.1591ZM131.358 60.5455C131.315 60.1856 131.143 59.9062 130.839 59.7074C130.536 59.5085 130.165 59.4091 129.724 59.4091C129.402 59.4091 129.121 59.4612 128.879 59.5653C128.64 59.6695 128.453 59.8127 128.318 59.995C128.186 60.1773 128.119 60.3845 128.119 60.6165C128.119 60.8106 128.165 60.9775 128.258 61.1172C128.353 61.2545 128.473 61.3693 128.62 61.4616C128.767 61.5516 128.921 61.6262 129.082 61.6854C129.243 61.7422 129.391 61.7884 129.526 61.8239L130.264 62.0227C130.454 62.0724 130.664 62.1411 130.896 62.2287C131.131 62.3163 131.354 62.4358 131.567 62.5874C131.783 62.7365 131.96 62.9283 132.1 63.1626C132.24 63.397 132.31 63.6847 132.31 64.0256C132.31 64.4186 132.207 64.7737 132.001 65.0909C131.797 65.4081 131.499 65.6603 131.106 65.8473C130.715 66.0343 130.241 66.1278 129.682 66.1278C129.161 66.1278 128.71 66.0438 128.329 65.8757C127.95 65.7076 127.652 65.4732 127.434 65.1726C127.219 64.8719 127.097 64.5227 127.068 64.125H127.977C128.001 64.3996 128.093 64.6269 128.254 64.8068C128.418 64.9844 128.624 65.117 128.872 65.2045C129.123 65.2898 129.393 65.3324 129.682 65.3324C130.018 65.3324 130.32 65.2779 130.587 65.169C130.855 65.0578 131.067 64.9039 131.223 64.7074C131.379 64.5085 131.457 64.2765 131.457 64.0114C131.457 63.7699 131.39 63.5734 131.255 63.4219C131.12 63.2704 130.942 63.1473 130.722 63.0526C130.502 62.9579 130.264 62.875 130.009 62.804L129.114 62.5483C128.545 62.3849 128.096 62.1518 127.764 61.8487C127.433 61.5457 127.267 61.1491 127.267 60.6591C127.267 60.2519 127.377 59.8968 127.597 59.5938C127.82 59.2884 128.118 59.0516 128.492 58.8835C128.869 58.7131 129.289 58.6278 129.753 58.6278C130.222 58.6278 130.638 58.7119 131.003 58.88C131.367 59.0457 131.656 59.273 131.869 59.5618C132.085 59.8506 132.198 60.1785 132.21 60.5455H131.358ZM136.46 59.5085V58.7273H141.914V59.5085H139.628V66H138.747V59.5085H136.46ZM147.254 58.7273V66H146.374V58.7273H147.254ZM157.887 58.7273V66H157.035L153.072 60.2898H153.001V66H152.12V58.7273H152.972L156.95 64.4517H157.021V58.7273H157.887ZM167.721 61C167.643 60.7609 167.54 60.5466 167.412 60.3572C167.287 60.1655 167.136 60.0021 166.961 59.8672C166.788 59.7322 166.592 59.6293 166.372 59.5582C166.151 59.4872 165.91 59.4517 165.647 59.4517C165.216 59.4517 164.824 59.563 164.472 59.7855C164.119 60.008 163.838 60.3359 163.63 60.7692C163.422 61.2024 163.318 61.7339 163.318 62.3636C163.318 62.9934 163.423 63.5249 163.634 63.9581C163.844 64.3913 164.13 64.7192 164.489 64.9418C164.849 65.1643 165.254 65.2756 165.704 65.2756C166.121 65.2756 166.488 65.1868 166.805 65.0092C167.124 64.8293 167.373 64.576 167.551 64.2493C167.73 63.9202 167.82 63.5331 167.82 63.0881L168.09 63.1449H165.903V62.3636H168.673V63.1449C168.673 63.7438 168.545 64.2647 168.289 64.7074C168.036 65.1501 167.686 65.4934 167.238 65.7372C166.793 65.9787 166.282 66.0994 165.704 66.0994C165.06 66.0994 164.494 65.9479 164.007 65.6449C163.521 65.3419 163.142 64.911 162.87 64.3523C162.6 63.7936 162.465 63.1307 162.465 62.3636C162.465 61.7884 162.542 61.2711 162.696 60.8118C162.852 60.3501 163.073 59.9571 163.357 59.6328C163.641 59.3085 163.977 59.0599 164.365 58.8871C164.753 58.7143 165.181 58.6278 165.647 58.6278C166.031 58.6278 166.388 58.6858 166.72 58.8018C167.053 58.9155 167.351 59.0777 167.611 59.2884C167.874 59.4967 168.093 59.7464 168.268 60.0376C168.443 60.3265 168.564 60.6473 168.63 61H167.721ZM183.171 60.5455C183.128 60.1856 182.955 59.9062 182.652 59.7074C182.349 59.5085 181.978 59.4091 181.537 59.4091C181.215 59.4091 180.934 59.4612 180.692 59.5653C180.453 59.6695 180.266 59.8127 180.131 59.995C179.998 60.1773 179.932 60.3845 179.932 60.6165C179.932 60.8106 179.978 60.9775 180.071 61.1172C180.165 61.2545 180.286 61.3693 180.433 61.4616C180.58 61.5516 180.734 61.6262 180.895 61.6854C181.056 61.7422 181.204 61.7884 181.338 61.8239L182.077 62.0227C182.266 62.0724 182.477 62.1411 182.709 62.2287C182.944 62.3163 183.167 62.4358 183.38 62.5874C183.596 62.7365 183.773 62.9283 183.913 63.1626C184.053 63.397 184.123 63.6847 184.123 64.0256C184.123 64.4186 184.02 64.7737 183.814 65.0909C183.61 65.4081 183.312 65.6603 182.919 65.8473C182.528 66.0343 182.053 66.1278 181.495 66.1278C180.974 66.1278 180.523 66.0438 180.142 65.8757C179.763 65.7076 179.465 65.4732 179.247 65.1726C179.031 64.8719 178.909 64.5227 178.881 64.125H179.79C179.814 64.3996 179.906 64.6269 180.067 64.8068C180.231 64.9844 180.436 65.117 180.685 65.2045C180.936 65.2898 181.206 65.3324 181.495 65.3324C181.831 65.3324 182.133 65.2779 182.4 65.169C182.668 65.0578 182.88 64.9039 183.036 64.7074C183.192 64.5085 183.27 64.2765 183.27 64.0114C183.27 63.7699 183.203 63.5734 183.068 63.4219C182.933 63.2704 182.755 63.1473 182.535 63.0526C182.315 62.9579 182.077 62.875 181.821 62.804L180.927 62.5483C180.358 62.3849 179.909 62.1518 179.577 61.8487C179.246 61.5457 179.08 61.1491 179.08 60.6591C179.08 60.2519 179.19 59.8968 179.41 59.5938C179.633 59.2884 179.931 59.0516 180.305 58.8835C180.681 58.7131 181.102 58.6278 181.566 58.6278C182.034 58.6278 182.451 58.7119 182.816 58.88C183.18 59.0457 183.469 59.273 183.682 59.5618C183.898 59.8506 184.011 60.1785 184.023 60.5455H183.171ZM188.273 59.5085V58.7273H193.727V59.5085H191.44V66H190.56V59.5085H188.273ZM202.959 58.7273H203.84V63.5426C203.84 64.0398 203.723 64.4837 203.488 64.8743C203.256 65.2625 202.928 65.5691 202.505 65.794C202.081 66.0166 201.584 66.1278 201.013 66.1278C200.443 66.1278 199.946 66.0166 199.522 65.794C199.098 65.5691 198.769 65.2625 198.535 64.8743C198.303 64.4837 198.187 64.0398 198.187 63.5426V58.7273H199.067V63.4716C199.067 63.8267 199.145 64.1428 199.302 64.4197C199.458 64.6944 199.68 64.911 199.969 65.0696C200.26 65.2259 200.608 65.304 201.013 65.304C201.418 65.304 201.766 65.2259 202.057 65.0696C202.348 64.911 202.571 64.6944 202.725 64.4197C202.881 64.1428 202.959 63.8267 202.959 63.4716V58.7273ZM210.943 66H208.699V58.7273H211.042C211.748 58.7273 212.352 58.8729 212.853 59.1641C213.355 59.4529 213.74 59.8684 214.008 60.4105C214.275 60.9503 214.409 61.5966 214.409 62.3494C214.409 63.107 214.274 63.7592 214.004 64.3061C213.734 64.8506 213.341 65.2696 212.825 65.5632C212.309 65.8544 211.682 66 210.943 66ZM209.579 65.2188H210.886C211.487 65.2188 211.986 65.1027 212.381 64.8707C212.777 64.6387 213.071 64.3085 213.265 63.88C213.46 63.4515 213.557 62.9413 213.557 62.3494C213.557 61.7623 213.461 61.2569 213.269 60.8331C213.077 60.407 212.791 60.0803 212.41 59.853C212.028 59.6233 211.554 59.5085 210.986 59.5085H209.579V65.2188ZM219.867 58.7273V66H218.986V58.7273H219.867ZM230.869 62.3636C230.869 63.1307 230.731 63.7936 230.454 64.3523C230.177 64.911 229.797 65.3419 229.314 65.6449C228.831 65.9479 228.279 66.0994 227.659 66.0994C227.039 66.0994 226.487 65.9479 226.004 65.6449C225.521 65.3419 225.141 64.911 224.864 64.3523C224.587 63.7936 224.449 63.1307 224.449 62.3636C224.449 61.5966 224.587 60.9337 224.864 60.375C225.141 59.8163 225.521 59.3854 226.004 59.0824C226.487 58.7794 227.039 58.6278 227.659 58.6278C228.279 58.6278 228.831 58.7794 229.314 59.0824C229.797 59.3854 230.177 59.8163 230.454 60.375C230.731 60.9337 230.869 61.5966 230.869 62.3636ZM230.017 62.3636C230.017 61.7339 229.911 61.2024 229.701 60.7692C229.492 60.3359 229.209 60.008 228.852 59.7855C228.497 59.563 228.099 59.4517 227.659 59.4517C227.218 59.4517 226.82 59.563 226.462 59.7855C226.107 60.008 225.824 60.3359 225.613 60.7692C225.405 61.2024 225.301 61.7339 225.301 62.3636C225.301 62.9934 225.405 63.5249 225.613 63.9581C225.824 64.3913 226.107 64.7192 226.462 64.9418C226.82 65.1643 227.218 65.2756 227.659 65.2756C228.099 65.2756 228.497 65.1643 228.852 64.9418C229.209 64.7192 229.492 64.3913 229.701 63.9581C229.911 63.5249 230.017 62.9934 230.017 62.3636Z" fill="#707991"/>
</g>
<defs>
<linearGradient id="paint0_linear_23_566" x1="28.4867" y1="46.0036" x2="77.0001" y2="46.0036" gradientUnits="userSpaceOnUse">
<stop offset="0.13" stop-color="#008771"/>
<stop offset="0.54" stop-color="#00A086"/>
<stop offset="0.93" stop-color="#00B497"/>
</linearGradient>
<linearGradient id="paint1_linear_23_566" x1="12.3189" y1="30.189" x2="32.8052" y2="65.8721" gradientUnits="userSpaceOnUse">
<stop stop-color="#00B497"/>
<stop offset="0.16" stop-color="#06B699"/>
<stop offset="0.37" stop-color="#16BA9F"/>
<stop offset="0.6" stop-color="#30C1A8"/>
<stop offset="0.84" stop-color="#55CBB5"/>
<stop offset="1" stop-color="#70D3BF"/>
</linearGradient>
<linearGradient id="paint2_linear_23_566" x1="33.0827" y1="18.2263" x2="45.565" y2="39.9653" gradientUnits="userSpaceOnUse">
<stop stop-color="#5AE5BB"/>
<stop offset="0.29" stop-color="#36D1AC"/>
<stop offset="0.57" stop-color="#18C1A1"/>
<stop offset="0.82" stop-color="#06B79A"/>
<stop offset="1" stop-color="#00B497"/>
</linearGradient>
<clipPath id="clip0_23_566">
<rect width="242" height="85" fill="white"/>
</clipPath>
</defs>
</svg>
