<svg width="166" height="162" viewBox="0 0 166 162" fill="none" xmlns="http://www.w3.org/2000/svg">
<rect width="166" height="161.118" rx="80.5588" fill="white"/>
<path d="M52.4691 99.5573L78.1719 55.1616C79.5924 52.708 80.3027 51.4812 81.2293 51.0691C82.0376 50.7097 82.9604 50.7097 83.7687 51.0691C84.6953 51.4812 85.4056 52.708 86.8261 55.1616L112.529 99.5573C113.955 102.02 114.667 103.251 114.562 104.262C114.47 105.143 114.008 105.944 113.292 106.465C112.47 107.062 111.047 107.062 108.202 107.062H56.7962C53.9508 107.062 52.5281 107.062 51.7064 106.465C50.9897 105.944 50.5279 105.143 50.436 104.262C50.3306 103.251 51.0435 102.02 52.4691 99.5573Z" fill="#FFE5CD"/>
<path d="M82.499 71.125V83.625M82.499 96.125H82.5302M78.1719 55.1616L52.4691 99.5573C51.0435 102.02 50.3306 103.251 50.436 104.262C50.5279 105.143 50.9897 105.944 51.7064 106.465C52.5281 107.062 53.9508 107.062 56.7962 107.062H108.202C111.047 107.062 112.47 107.062 113.292 106.465C114.008 105.944 114.47 105.143 114.562 104.262C114.667 103.251 113.955 102.02 112.529 99.5573L86.8261 55.1616C85.4056 52.708 84.6953 51.4812 83.7687 51.0691C82.9604 50.7097 82.0376 50.7097 81.2293 51.0691C80.3027 51.4812 79.5924 52.708 78.1719 55.1616Z" stroke="#F8B03E" stroke-width="6" stroke-linecap="round" stroke-linejoin="round"/>
</svg>
